<svg xmlns="http://www.w3.org/2000/svg" xmlns:xlink="http://www.w3.org/1999/xlink" version="1.1" width="400" height="47" style=""><rect id="backgroundrect" width="100%" height="100%" x="0" y="0" fill="none" stroke="none"/><g class="currentLayer" style=""><title>Layer 1</title><g data-paper-data="{&quot;description&quot;:&quot;Logo for tvrestaurnt\n====================\n\nThis logo was generated by MarkMaker at http://emblemmatic.org/markmaker/ and may be composed of elements designed by others.\n\nThe font is InknutAntiqua-Light designed by Claus Eggers Sørensen and released under the OFL license via Google Fonts: https://www.google.com/fonts/specimen/Inknut%20Antiqua. The font includes this copyright statement: Copyright (c) 2014 by Claus Eggers Srensen (es@forthehearts.net).\n\nMarkMaker uses semantic data from the Princeton University WordNet database http://wordnet.princeton.edu and font descriptions from Google Fonts https://www.google.com/fonts.&quot;}" fill="#1d1b01" fill-rule="nonzero" stroke="none" stroke-width="1" stroke-linecap="butt" stroke-linejoin="miter" stroke-miterlimit="10" stroke-dasharray="" stroke-dashoffset="0" font-family="none" font-weight="none" font-size="none" text-anchor="none" style="mix-blend-mode: normal" id="svg_1" class=""><g data-paper-data="{&quot;elementType&quot;:&quot;logo&quot;}" id="svg_2"><g data-paper-data="{&quot;elementType&quot;:&quot;text&quot;}" id="svg_3"><g data-paper-data="{&quot;baseline&quot;:72.10000000000001,&quot;elementType&quot;:&quot;row&quot;}" id="svg_4"><g data-paper-data="{&quot;baselineProportion&quot;:0.9863201094391245,&quot;fontSize&quot;:100,&quot;baseline&quot;:72.10000000000001,&quot;elementType&quot;:&quot;word&quot;}" id="svg_5"><path d="M20.006370000000004,46.06559343261716 c-0.8920000000000001,0.3398100000000001 -1.97515,0.5097200000000001 -3.24944,0.5097200000000001 c-3.4405900000000003,0 -5.94669,-0.92386 -7.51832,-2.77158 c-1.57163,-1.8477200000000003 -2.35744,-4.70426 -2.35744,-8.56961 v-18.85951 h-6.88117 v-2.42115 l11.78719,-13.95349 h2.10258 v14.08092 h11.46862 v2.29372 h-11.46862 v19.87894 c0,3.52554 1.65658,5.28831 4.96974,5.28831 c0.8920000000000001,0 1.75215,-0.19114000000000003 2.5804400000000003,-0.57343 c0.8282900000000001,-0.38229 1.85834,-1.10439 3.09016,-2.16629 l1.91144,2.16629 z" data-paper-data="{&quot;elementType&quot;:&quot;letter&quot;,&quot;baseline&quot;:72.10000000000001,&quot;baselineProportion&quot;:0.9863201094391245,&quot;fontSize&quot;:100}" id="svg_6"/><path d="M64.79771,13.82603343261718 l-16.05607,32.11214 h-4.20516 l-10.13061,-24.59382 l-5.79802,-3.3768700000000003 v-1.65658 l10.25804,-5.35202 l2.42115,9.6209 l7.90061,19.43294 l9.30233,-19.43294 l-8.34661,-6.18031 l1.08315,-2.23001 h13.5712 z" data-paper-data="{&quot;elementType&quot;:&quot;letter&quot;,&quot;baseline&quot;:54.900000000000006,&quot;baselineProportion&quot;:1,&quot;fontSize&quot;:100}" id="svg_7"/><path d="M94.29755,11.596023432617187 c1.18934,0 2.27249,0.36105000000000004 3.24944,1.08315 c0.9769599999999999,0.7221000000000001 1.7627700000000002,1.72029 2.35744,2.99458 l-3.88659,4.84231 h-2.10258 c-0.16991000000000006,-0.93448 -0.47786000000000006,-1.6141 -0.92386,-2.03887 c-0.44600000000000006,-0.42476 -1.05129,-0.6371500000000001 -1.81586,-0.6371500000000001 c-1.01943,0 -2.0601,0.25486000000000003 -3.12201,0.7645700000000001 c-1.06191,0.5097200000000001 -2.29372,1.52915 -3.69544,3.0583 v19.36923 l8.72889,2.73973 l-1.08315,2.23001 h-20.32494 v-1.65658 l5.6706,-4.3963 v-18.73208 l-5.6706,-3.24944 v-1.65658 l10.38547,-5.35202 l1.91144,8.02803 l6.7537400000000005,-6.94489 c0.93448,-0.3398100000000001 2.14506,-0.5097200000000001 3.63173,-0.5097200000000001 z" data-paper-data="{&quot;elementType&quot;:&quot;letter&quot;,&quot;baseline&quot;:54.900000000000006,&quot;baselineProportion&quot;:0.9981818181818183,&quot;fontSize&quot;:100}" id="svg_8"/><path d="M125.83625,46.12931343261721 c-1.57163,0.29733000000000004 -3.41935,0.44600000000000006 -5.54317,0.44600000000000006 c-2.71849,0 -5.1715,-0.7221000000000001 -7.35903,-2.16629 c-2.18753,-1.4442 -3.8972100000000003,-3.41935 -5.12902,-5.92545 c-1.23181,-2.50611 -1.8477200000000003,-5.26707 -1.8477200000000003,-8.28289 c0,-3.27068 0.9769599999999999,-6.35022 2.93087,-9.23861 c1.95391,-2.8883900000000002 4.40692,-5.18212 7.35903,-6.88117 c2.9521100000000002,-1.6990500000000002 5.8086400000000005,-2.54858 8.56961,-2.54858 c3.90783,0 6.95551,1.57163 9.14304,4.71488 c2.18753,3.14325 3.30254,7.26346 3.3450100000000003,12.36062 h-23.6381 c0.21238,3.7804 1.1999600000000001,6.89179 2.96273,9.33418 c1.7627700000000002,2.44239 4.21578,3.66359 7.35903,3.66359 c2.76096,0 6.60508,-2.27249 11.53234,-6.81746 l1.91144,2.23001 l-11.59605,9.11118 M121.12137999999999,16.5020434326172 c-4.75735,0 -7.24222,3.27068 -7.4546,9.81204 h15.41892 c-0.42476,-2.42115 -0.83891,-4.25826 -1.2424300000000001,-5.51131 c-0.40353,-1.25305 -1.12562,-2.28311 -2.16629,-3.09016 c-1.04067,-0.80705 -2.5804400000000003,-1.21058 -4.6193100000000005,-1.21058 z" data-paper-data="{&quot;elementType&quot;:&quot;letter&quot;,&quot;baseline&quot;:54,&quot;baselineProportion&quot;:0.9818181818181818,&quot;fontSize&quot;:100}" id="svg_9"/><path d="M167.37815,39.31185343261717 c0,-1.27429 -0.6690000000000002,-2.41053 -2.00701,-3.40873 c-1.3380100000000001,-0.99819 -3.42997,-2.24063 -6.27588,-3.7273 c-3.31316,-1.65658 -5.8405000000000005,-3.18573 -7.58203,-4.5874500000000005 c-1.74153,-1.40172 -2.6123000000000003,-3.0583 -2.6123000000000003,-4.96974 c0,-1.52915 0.62653,-3.1644900000000002 1.87958,-4.90602 c1.25305,-1.74153 2.7822,-3.20697 4.5874500000000005,-4.3963 c1.80525,-1.18934 3.49368,-1.7840099999999999 5.06531,-1.7840099999999999 c1.86896,0 4.05649,0.24424000000000004 6.5626,0.7327200000000001 c2.50611,0.4884800000000001 4.33259,1.03005 5.47945,1.6247200000000002 v9.68461 h-2.10258 c-1.4442,-2.71849 -3.06892,-4.84231 -4.87416,-6.37146 c-1.80525,-1.52915 -3.66359,-2.29372 -5.57502,-2.29372 c-1.4442,0 -2.59106,0.38229 -3.4405900000000003,1.14686 c-0.84953,0.7645700000000001 -1.27429,1.6990500000000002 -1.27429,2.80344 c0,1.40172 0.6902400000000002,2.62292 2.07072,3.66359 c1.3804800000000002,1.04067 3.5361599999999997,2.30434 6.46703,3.79102 c2.16629,1.10439 3.90783,2.04948 5.22459,2.8353 c1.31677,0.78581 2.43177,1.70967 3.3450100000000003,2.77158 c0.91324,1.06191 1.36986,2.2512499999999998 1.36986,3.56802 c0,1.57163 -0.6583800000000001,3.21759 -1.97515,4.93788 c-1.31677,1.72029 -2.90963,3.17511 -4.77859,4.36445 c-1.86896,1.18934 -3.58925,1.7840099999999999 -5.16088,1.7840099999999999 c-2.03887,0 -4.46002,-0.25486000000000003 -7.26346,-0.7645700000000001 c-2.80344,-0.5097200000000001 -4.79983,-1.04067 -5.98917,-1.59286 v-9.55718 h2.10258 c1.4866700000000002,2.71849 3.2813,4.82107 5.38388,6.30774 c2.10258,1.4866700000000002 4.21578,2.23001 6.3396,2.23001 c1.4866700000000002,0 2.6972500000000004,-0.38229 3.63173,-1.14686 c0.93448,-0.7645700000000001 1.40172,-1.67782 1.40172,-2.73973 z" data-paper-data="{&quot;elementType&quot;:&quot;letter&quot;,&quot;baseline&quot;:54,&quot;baselineProportion&quot;:0.9818181818181818,&quot;fontSize&quot;:100}" id="svg_10"/><path d="M200.25486,46.06559343261716 c-0.8920000000000001,0.3398100000000001 -1.97515,0.5097200000000001 -3.24944,0.5097200000000001 c-3.4405900000000003,0 -5.94669,-0.92386 -7.51832,-2.77158 c-1.57163,-1.8477200000000003 -2.35744,-4.70426 -2.35744,-8.56961 v-18.85951 h-6.88117 v-2.42115 l11.78719,-13.95349 h2.10258 v14.08092 h11.46862 v2.29372 h-11.46862 v19.87894 c0,3.52554 1.65658,5.28831 4.96974,5.28831 c0.8920000000000001,0 1.75215,-0.19114000000000003 2.5804400000000003,-0.57343 c0.8282900000000001,-0.38229 1.85834,-1.10439 3.09016,-2.16629 l1.91144,2.16629 z" data-paper-data="{&quot;elementType&quot;:&quot;letter&quot;,&quot;baseline&quot;:72.10000000000001,&quot;baselineProportion&quot;:0.9863201094391245,&quot;fontSize&quot;:100}" id="svg_11"/><path d="M244.53647999999998,45.93817343261719 h-11.59605 v-5.54317 l-7.19975,5.6706 c-0.84953,0.3398100000000001 -1.91144,0.5097200000000001 -3.18573,0.5097200000000001 c-3.56802,0 -6.14845,-0.8920000000000001 -7.74132,-2.67601 c-1.59286,-1.7840099999999999 -2.3893,-3.9290599999999998 -2.3893,-6.43517 c0,-1.52915 0.5521900000000001,-3.02644 1.65658,-4.49188 c1.10439,-1.46543 2.6972500000000004,-2.85654 4.77859,-4.1733 h14.08092 v-4.65116 c0,-2.84592 -0.7539600000000001,-4.84231 -2.26187,-5.98917 c-1.5079099999999999,-1.14686 -3.57863,-1.72029 -6.21217,-1.72029 c-2.59106,0 -5.69183,1.67782 -9.30233,5.03345 l-1.91144,-2.16629 l9.23861,-7.32717 c1.65658,-0.29733000000000004 3.61049,-0.44600000000000006 5.86174,-0.44600000000000006 c3.6529700000000003,0 6.49888,0.92386 8.53775,2.77158 c2.03887,1.8477200000000003 3.0583,4.51311 3.0583,7.99618 v19.17808 l5.73431,2.23001 l-1.14686,2.23001 M224.33896,41.79672343261717 c2.67601,0 5.54317,-1.25305 8.60147,-3.75916 v-6.94489 h-11.46862 c-0.6371500000000001,0.7221000000000001 -1.07253,1.4442 -1.3061500000000001,2.16629 c-0.23362,0.7221000000000001 -0.35043,1.52915 -0.35043,2.42115 c0,1.65658 0.41414,3.09016 1.2424300000000001,4.30073 c0.8282900000000001,1.21058 1.92206,1.81586 3.2813,1.81586 z" data-paper-data="{&quot;elementType&quot;:&quot;letter&quot;,&quot;baseline&quot;:54,&quot;baselineProportion&quot;:0.9818181818181818,&quot;fontSize&quot;:100}" id="svg_12"/><path d="M288.81809,45.93817343261719 h-11.65976 v-6.88117 l-8.28289,7.0086 c-0.8920000000000001,0.3398100000000001 -2.03887,0.5097200000000001 -3.4405900000000003,0.5097200000000001 c-2.84592,0 -5.08655,-0.88138 -6.72189,-2.6441500000000002 c-1.6353400000000002,-1.7627700000000002 -2.45301,-4.15207 -2.45301,-7.16789 v-15.54635 l-5.6706,-3.31316 v-1.65658 l10.57662,-5.35202 h2.10258 v23.00096 c0,2.42115 0.37167000000000006,4.0989700000000004 1.115,5.03345 c0.7433400000000001,0.93448 2.07072,1.40172 3.98216,1.40172 c1.35924,0 2.70787,-0.26548000000000005 4.04587,-0.79643 c1.3380100000000001,-0.53095 2.9202500000000002,-1.58224 4.74673,-3.15387 v-15.16406 l-5.6706,-3.31316 v-1.65658 l10.57662,-5.35202 h2.10258 v30.51927 l5.73431,2.29372 z" data-paper-data="{&quot;elementType&quot;:&quot;letter&quot;,&quot;baseline&quot;:55,&quot;baselineProportion&quot;:0.9821428571428571,&quot;fontSize&quot;:100}" id="svg_13"/><path d="M319.40108,11.596023432617187 c1.18934,0 2.27249,0.36105000000000004 3.24944,1.08315 c0.9769599999999999,0.7221000000000001 1.7627700000000002,1.72029 2.35744,2.99458 l-3.88659,4.84231 h-2.10258 c-0.16991000000000006,-0.93448 -0.47786000000000006,-1.6141 -0.92386,-2.03887 c-0.44600000000000006,-0.42476 -1.05129,-0.6371500000000001 -1.81586,-0.6371500000000001 c-1.01943,0 -2.0601,0.25486000000000003 -3.12201,0.7645700000000001 c-1.06191,0.5097200000000001 -2.29372,1.52915 -3.69544,3.0583 v19.36923 l8.72889,2.73973 l-1.08315,2.23001 h-20.32494 v-1.65658 l5.6706,-4.3963 v-18.73208 l-5.6706,-3.24944 v-1.65658 l10.38547,-5.35202 l1.91144,8.02803 l6.7537400000000005,-6.94489 c0.93448,-0.3398100000000001 2.14506,-0.5097200000000001 3.63173,-0.5097200000000001 z" data-paper-data="{&quot;elementType&quot;:&quot;letter&quot;,&quot;baseline&quot;:54.900000000000006,&quot;baselineProportion&quot;:0.9981818181818183,&quot;fontSize&quot;:100}" id="svg_14"/><path d="M368.84358,46.001883432617205 h-11.59605 v-21.72666 c0,-2.42115 -0.38229,-4.0989700000000004 -1.14686,-5.03345 c-0.7645700000000001,-0.93448 -2.10258,-1.40172 -4.01402,-1.40172 c-1.4866700000000002,0 -2.94149,0.26548000000000005 -4.36445,0.79643 c-1.42296,0.53095 -3.13263,1.60348 -5.12902,3.21759 v19.62408 l5.73431,2.29372 l-1.14686,2.23001 h-17.26665 v-1.65658 l5.6706,-4.3963 v-18.73208 l-5.6706,-3.24944 v-1.65658 l10.38547,-5.35202 l2.03887,8.47404 l9.30233,-7.39089 c0.8920000000000001,-0.3398100000000001 2.01763,-0.5097200000000001 3.3768700000000003,-0.5097200000000001 c2.84592,0 5.09716,0.88138 6.7537400000000005,2.6441500000000002 c1.65658,1.7627700000000002 2.48487,4.15207 2.48487,7.16789 v20.07009 l5.73431,2.35744 z" data-paper-data="{&quot;elementType&quot;:&quot;letter&quot;,&quot;baseline&quot;:54.900000000000006,&quot;baselineProportion&quot;:0.9981818181818183,&quot;fontSize&quot;:100}" id="svg_15"/><path d="M393.56483,46.06559343261716 c-0.8920000000000001,0.3398100000000001 -1.97515,0.5097200000000001 -3.24944,0.5097200000000001 c-3.4405900000000003,0 -5.94669,-0.92386 -7.51832,-2.77158 c-1.57163,-1.8477200000000003 -2.35744,-4.70426 -2.35744,-8.56961 v-18.85951 h-6.88117 v-2.42115 l11.78719,-13.95349 h2.10258 v14.08092 h11.46862 v2.29372 h-11.46862 v19.87894 c0,3.52554 1.65658,5.28831 4.96974,5.28831 c0.8920000000000001,0 1.75215,-0.19114000000000003 2.5804400000000003,-0.57343 c0.8282900000000001,-0.38229 1.85834,-1.10439 3.09016,-2.16629 l1.91144,2.16629 z" data-paper-data="{&quot;elementType&quot;:&quot;letter&quot;,&quot;baseline&quot;:72.10000000000001,&quot;baselineProportion&quot;:0.9863201094391245,&quot;fontSize&quot;:100}" id="svg_16"/></g></g></g></g></g></g></svg>